<svg width="768" height="186" viewBox="0 0 768 186" fill="none" xmlns="http://www.w3.org/2000/svg">
<path d="M213.8 128.2C209.9 128.2 206 128.1 202.1 127.8C198.2 127.6 194.2 127 190 126.1V56.9C193.3 56.3 196.9 55.8 200.8 55.5C204.7 55.2 208.4 55 211.7 55C216.2 55 220.4 55.3 224.2 56C228 56.7 231.3 57.8 234 59.3C236.7 60.9 238.9 63 240.4 65.5C241.9 68.1 242.7 71.3 242.7 75C242.7 80.7 240 85.2 234.5 88.5C239 90.2 242.1 92.6 243.8 95.5C245.4 98.5 246.3 101.8 246.3 105.5C246.3 113 243.6 118.6 238.1 122.4C232.7 126.3 224.6 128.2 213.8 128.2ZM205.7 83.9H213.5C218.4 83.9 222 83.3 224.1 82C226.2 80.7 227.3 78.7 227.3 75.9C227.3 73 226.2 71 224 69.8C221.8 68.6 218.6 68 214.3 68C212.9 68 211.4 68 209.9 68.1C208.3 68.1 206.9 68.2 205.7 68.4V83.9ZM205.7 96.1V114.5C206.9 114.6 208.1 114.7 209.5 114.8C210.9 114.9 212.4 114.9 214 114.9C218.8 114.9 222.7 114.2 225.6 112.8C228.6 111.4 230 108.9 230 105.2C230 101.9 228.8 99.5 226.3 98.1C223.8 96.7 220.3 96 215.7 96H205.7V96.1Z" fill="#010244"/>
<path d="M255.7 100.5C255.7 95.7 256.4 91.5 257.9 87.9C259.4 84.3 261.3 81.3 263.7 78.9C266.1 76.5 268.9 74.7 272 73.4C275.1 72.2 278.3 71.5 281.6 71.5C289.3 71.5 295.4 73.9 299.8 78.6C304.3 83.3 306.5 90.2 306.5 99.4C306.5 100.3 306.5 101.3 306.4 102.3C306.3 103.4 306.3 104.3 306.2 105.1H271.4C271.7 108.3 273.2 110.8 275.8 112.6C278.4 114.5 281.9 115.4 286.3 115.4C289.1 115.4 291.9 115.1 294.6 114.6C297.3 114.1 299.5 113.5 301.2 112.7L303.3 125.2C302.5 125.6 301.4 126 300 126.4C298.6 126.8 297.1 127.2 295.4 127.5C293.7 127.8 291.9 128.1 290 128.3C288.1 128.5 286.2 128.6 284.2 128.6C279.3 128.6 275.1 127.9 271.5 126.4C267.9 125 264.9 123 262.5 120.5C260.1 118 258.4 115 257.2 111.6C256.2 108.2 255.7 104.5 255.7 100.5ZM291.7 94.7C291.6 93.4 291.4 92.1 291 90.9C290.6 89.7 290 88.6 289.2 87.6C288.4 86.6 287.4 85.8 286.2 85.2C285 84.6 283.5 84.3 281.7 84.3C280 84.3 278.5 84.6 277.3 85.2C276.1 85.8 275 86.6 274.2 87.5C273.4 88.5 272.7 89.6 272.3 90.8C271.9 92.1 271.5 93.4 271.3 94.7H291.7Z" fill="#010244"/>
<path d="M318.4 74.9003C321 74.1003 324.4 73.4003 328.5 72.8003C332.6 72.1003 336.9 71.8003 341.5 71.8003C346.1 71.8003 349.9 72.4003 353 73.6003C356.1 74.8003 358.5 76.5003 360.3 78.7003C362.1 80.9003 363.4 83.5003 364.1 86.5003C364.9 89.5003 365.2 92.9003 365.2 96.6003V127.2H349.9V98.5003C349.9 93.6003 349.2 90.1003 347.9 88.0003C346.6 85.9003 344.2 84.9003 340.6 84.9003C339.5 84.9003 338.3 85.0003 337.1 85.1003C335.9 85.2003 334.8 85.3003 333.8 85.5003V127.3H318.4V74.9003Z" fill="#010244"/>
<path d="M376.5 100.1C376.5 96.2 377.1 92.5 378.4 89C379.7 85.5 381.5 82.5 383.9 79.9C386.3 77.3 389.2 75.3 392.7 73.8C396.1 72.3 400 71.5 404.4 71.5C407.3 71.5 409.9 71.8 412.3 72.3C414.7 72.8 417 73.6 419.3 74.5L416.1 86.8C414.7 86.3 413.1 85.8 411.4 85.4C409.7 85 407.8 84.8 405.6 84.8C401.1 84.8 397.7 86.2 395.4 89C393.2 91.8 392.1 95.5 392.1 100.1C392.1 105 393.1 108.8 395.2 111.4C397.3 114.1 401 115.4 406.2 115.4C408.1 115.4 410 115.2 412.2 114.9C414.3 114.6 416.3 114 418.1 113.3L420.3 125.9C418.5 126.7 416.3 127.3 413.6 127.9C410.9 128.4 408 128.7 404.7 128.7C399.8 128.7 395.5 128 391.9 126.5C388.3 125 385.4 123 383.1 120.5C380.8 118 379.1 115 378.1 111.5C377.1 108 376.5 104.2 376.5 100.1Z" fill="#010244"/>
<path d="M430.6 127.2V49.7002L446 47.2002V73.2002C447 72.9002 448.4 72.5002 450 72.2002C451.6 71.9002 453.2 71.7002 454.7 71.7002C459.1 71.7002 462.8 72.3002 465.7 73.5002C468.6 74.7002 471 76.4002 472.7 78.6002C474.5 80.8002 475.7 83.4002 476.4 86.4002C477.1 89.4002 477.5 92.8002 477.5 96.5002V127.1H462.1V98.4002C462.1 93.5002 461.5 90.0002 460.2 87.9002C458.9 85.8002 456.6 84.8002 453.1 84.8002C451.7 84.8002 450.4 84.9002 449.2 85.2002C448 85.4002 446.9 85.7002 446 86.0002V127.2H430.6Z" fill="#010244"/>
<path d="M511.8 115C514.1 115 515.9 114.8 517.4 114.4C518.9 114 520.1 113.5 521 112.9C521.9 112.2 522.5 111.5 522.9 110.6C523.2 109.7 523.4 108.7 523.4 107.6C523.4 105.3 522.3 103.3 520.1 101.8C517.9 100.3 514.1 98.6002 508.8 96.8002C506.5 96.0002 504.1 95.0002 501.8 94.0002C499.5 92.9002 497.4 91.6002 495.5 90.0002C493.6 88.4002 492.1 86.4002 491 84.1002C489.8 81.8002 489.2 79.0002 489.2 75.7002C489.2 72.4002 489.8 69.4002 491.1 66.8002C492.3 64.2002 494.1 61.9002 496.4 60.0002C498.7 58.1002 501.4 56.7002 504.6 55.7002C507.8 54.7002 511.5 54.2002 515.5 54.2002C520.3 54.2002 524.5 54.7002 528 55.7002C531.5 56.7002 534.4 57.9002 536.7 59.1002L532.1 71.8002C530.1 70.8002 527.9 69.9002 525.5 69.1002C523.1 68.3002 520.1 67.9002 516.7 67.9002C512.9 67.9002 510.1 68.4002 508.4 69.5002C506.7 70.6002 505.9 72.2002 505.9 74.4002C505.9 75.7002 506.2 76.8002 506.8 77.7002C507.4 78.6002 508.3 79.4002 509.4 80.1002C510.5 80.8002 511.8 81.5002 513.3 82.1002C514.8 82.7002 516.4 83.3002 518.2 83.9002C521.9 85.3002 525.1 86.6002 527.9 88.0002C530.6 89.3002 532.9 90.9002 534.8 92.7002C536.6 94.5002 538 96.6002 538.9 99.0002C539.8 101.4 540.2 104.3 540.2 107.8C540.2 114.5 537.9 119.6 533.2 123.3C528.5 127 521.5 128.8 512.1 128.8C508.9 128.8 506.1 128.6 503.5 128.2C501 127.8 498.7 127.4 496.8 126.8C494.8 126.3 493.2 125.7 491.8 125C490.4 124.4 489.2 123.8 488.2 123.2L492.7 110.4C494.8 111.6 497.5 112.6 500.6 113.5C503.5 114.5 507.3 115 511.8 115Z" fill="#010244"/>
<path d="M548.7 100.1C548.7 96.2 549.3 92.5 550.6 89C551.9 85.5 553.7 82.5 556.1 79.9C558.5 77.3 561.4 75.3 564.9 73.8C568.3 72.3 572.3 71.5 576.6 71.5C579.5 71.5 582.1 71.8 584.5 72.3C586.9 72.8 589.2 73.6 591.5 74.5L588.3 86.8C586.9 86.3 585.3 85.8 583.6 85.4C581.9 85 580 84.8 577.8 84.8C573.3 84.8 569.9 86.2 567.7 89C565.5 91.8 564.4 95.5 564.4 100.1C564.4 105 565.4 108.8 567.5 111.4C569.6 114.1 573.3 115.4 578.5 115.4C580.4 115.4 582.3 115.2 584.5 114.9C586.6 114.6 588.6 114 590.4 113.3L592.6 125.9C590.8 126.7 588.6 127.3 585.9 127.9C583.2 128.4 580.3 128.7 577 128.7C572.1 128.7 567.8 128 564.2 126.5C560.6 125 557.7 123 555.4 120.5C553.1 118 551.4 115 550.4 111.5C549.3 108 548.7 104.2 548.7 100.1Z" fill="#010244"/>
<path d="M619.7 71.6001C624.2 71.6001 628 72.1001 631 73.1001C634 74.1001 636.4 75.6001 638.3 77.5001C640.1 79.4001 641.4 81.8001 642.2 84.5001C643 87.2001 643.3 90.3001 643.3 93.7001V125.6C641.1 126.1 638 126.6 634.1 127.3C630.2 128 625.4 128.3 619.9 128.3C616.4 128.3 613.2 128 610.4 127.4C607.5 126.8 605.1 125.8 603 124.4C600.9 123 599.4 121.2 598.3 118.9C597.2 116.6 596.7 113.9 596.7 110.6C596.7 107.4 597.3 104.8 598.6 102.6C599.9 100.4 601.6 98.6001 603.7 97.3001C605.8 96.0001 608.3 95.1001 611 94.5001C613.7 93.9001 616.6 93.6001 619.6 93.6001C621.6 93.6001 623.4 93.7001 624.9 93.9001C626.4 94.1001 627.7 94.3001 628.7 94.6001V93.2001C628.7 90.6001 627.9 88.5001 626.3 86.9001C624.7 85.3001 622 84.5001 618.1 84.5001C615.5 84.5001 612.9 84.7001 610.4 85.1001C607.9 85.5001 605.7 86.0001 603.8 86.7001L601.8 74.3001C602.7 74.0001 603.8 73.7001 605.1 73.4001C606.4 73.1001 607.9 72.8001 609.5 72.6001C611.1 72.4001 612.7 72.2001 614.5 72.0001C616.2 71.7001 617.9 71.6001 619.7 71.6001ZM621 116.5C622.5 116.5 624 116.5 625.3 116.4C626.7 116.3 627.8 116.2 628.6 116.1V104.5C628 104.4 627.1 104.2 625.8 104.1C624.6 104 623.4 103.9 622.4 103.9C621 103.9 619.6 104 618.3 104.2C617 104.4 615.9 104.7 615 105.2C614 105.7 613.3 106.3 612.7 107.2C612.1 108 611.9 109.1 611.9 110.3C611.9 112.7 612.7 114.4 614.3 115.3C615.9 116.1 618.1 116.5 621 116.5Z" fill="#010244"/>
<path d="M707.6 100.1C707.6 104.3 707.1 108.1 706.1 111.5C705.1 114.9 703.6 117.9 701.6 120.4C699.6 122.9 697.1 124.8 694.2 126.2C691.2 127.6 687.8 128.3 684 128.3C681.9 128.3 679.9 128.1 678 127.7C676.1 127.3 674.4 126.7 672.6 125.9V146.3H657.2V74.9002C658.6 74.5002 660.2 74.1002 661.9 73.7002C663.7 73.3002 665.6 73.0002 667.5 72.7002C669.5 72.4002 671.4 72.2002 673.5 72.0002C675.5 71.8002 677.5 71.7002 679.3 71.7002C683.8 71.7002 687.7 72.4002 691.3 73.7002C694.8 75.0002 697.8 76.9002 700.2 79.4002C702.6 81.8002 704.4 84.8002 705.7 88.3002C707 91.8002 707.6 95.8002 707.6 100.1ZM692 100.5C692 95.8002 690.9 92.0002 688.8 89.1002C686.7 86.3002 683.5 84.8002 679.3 84.8002C677.9 84.8002 676.7 84.9002 675.5 85.0002C674.3 85.1002 673.4 85.2002 672.6 85.4002V113.1C673.6 113.7 674.8 114.2 676.4 114.6C677.9 115 679.5 115.2 681.1 115.2C688.3 115.3 692 110.4 692 100.5Z" fill="#010244"/>
<path d="M716.9 100.5C716.9 95.7 717.6 91.5 719.1 87.9C720.6 84.3 722.5 81.3 724.9 78.9C727.3 76.5 730.1 74.7 733.2 73.4C736.3 72.2 739.5 71.5 742.8 71.5C750.5 71.5 756.6 73.9 761 78.6C765.5 83.3 767.7 90.2 767.7 99.4C767.7 100.3 767.7 101.3 767.6 102.3C767.5 103.4 767.5 104.3 767.4 105.1H732.6C732.9 108.3 734.4 110.8 737 112.6C739.6 114.5 743.1 115.4 747.5 115.4C750.3 115.4 753.1 115.1 755.8 114.6C758.5 114.1 760.7 113.5 762.4 112.7L764.5 125.2C763.7 125.6 762.6 126 761.2 126.4C759.8 126.8 758.3 127.2 756.6 127.5C754.9 127.8 753.1 128.1 751.2 128.3C749.3 128.5 747.4 128.6 745.4 128.6C740.5 128.6 736.3 127.9 732.7 126.4C729.1 125 726.1 123 723.7 120.5C721.3 118 719.6 115 718.4 111.6C717.5 108.2 716.9 104.5 716.9 100.5ZM753 94.7C752.9 93.4 752.7 92.1 752.3 90.9C751.9 89.7 751.3 88.6 750.5 87.6C749.7 86.6 748.7 85.8 747.5 85.2C746.3 84.6 744.8 84.3 743 84.3C741.3 84.3 739.8 84.6 738.6 85.2C737.4 85.8 736.3 86.6 735.5 87.5C734.7 88.5 734 89.6 733.6 90.8C733.2 92.1 732.8 93.4 732.6 94.7H753Z" fill="#010244"/>
<path d="M3.1 69.6998C9.7 73.8998 14.6 80.2998 19 86.0998C23 91.2998 26.9 96.3998 31.4 99.2998C32.9 100.3 34.4 101 36.1 101.4C45.2 103.8 52.6 95.5998 67.1 78.2998C69.9 74.8998 72.9 71.3998 76.1 67.7998C67.5 64.3998 58.8 58.3998 49.5 49.4998C42 42.2998 33.7 38.7998 24.9 39.0998C15.2 39.4998 6.2 44.3998 0 48.8998V67.8998C0.6 68.1998 1.1 68.4998 1.7 68.7998C2.2 69.1998 2.6 69.3998 3.1 69.6998Z" fill="#010244"/>
<path d="M150.1 40.2002C149 41.5002 148 42.9002 146.9 44.3002C146 45.5002 145 46.8002 143.9 48.1002C150 52.4002 155.6 57.7002 160.3 62.8002V62.7002V46.1002L150.1 40.2002Z" fill="#010244"/>
<path d="M57.1 41.6C59.5 43.9 61.9 46 64.2 47.9C64.3 48 64.4 48 64.4 48.1C65 48.6 65.6 49 66.2 49.5C66.9 50 67.6 50.6 68.3 51.1C68.3 51.1 68.3 51.1 68.4 51.2C68.9 51.6 69.4 51.9 70 52.3C70.4 52.6 70.8 52.8 71.1 53.1C71.2 53.2 71.3 53.2 71.4 53.3C75.8 56.1 80 58.1 84.2 59.2C87.4 55.8 90.8 52.3 94.5 48.7C102.5 41 111.7 37.7 121.8 38.9C126.1 39.4 130.3 40.8 134.4 42.7C135.7 41.1 137 39.5 138.2 37.8C138.9 36.8 139.7 35.8 140.5 34.8L80.2 0L30.7 28.4C37.3 29.1 43.7 31.5 49.6 35.5C52.2 37.2 54.7 39.3 57.1 41.6Z" fill="#010244"/>
<path d="M136.4 56.1999C134.9 55.1999 133.3 54.1999 131.7 53.3999C129.9 52.3999 128.1 51.6 126.2 51C124.3 50.3 122.3 49.8 120.4 49.6C113.7 48.8 107.7 50.9999 102.1 56.3999C100.9 57.4999 99.8 58.5999 98.7 59.7999C96.8 61.6999 95 63.6 93.2 65.5C91.6 67.2 90.1 68.9 88.6 70.5C83.9 75.8 79.6 80.8 75.6 85.5C62.4 101.1 52.5 113 39.4 113C37.4 113 35.4 112.7 33.3 112.2C23 109.4 16.5 101 10.3 92.8999C6.9 88.4999 3.7 84.2999 0 81.1999V101.1C2.3 102.1 4.8 103.5 7.5 105.3C8.1 105.7 8.7 106.1 9.2 106.5C14.7 110.4 18.6 114.8 22.7 119.5L22.8 119.6L24.6 121.6C25.6 122.7 26.5 123.8 27.4 124.8C29.1 126.6 30.7 128.4 32.5 130C32.7 130.1 32.8 130.3 32.9 130.4C33.9 131.2 34.9 132 35.9 132.7C38.5 134.5 41.3 135.8 44.3 136.8C49.5 138.5 55 139 60.1 138C61.5 137.7 62.8 137.3 64.2 136.8C68 135.3 71.6 132.9 75.2 129.9C77.2 128.3 79.1 126.5 81 124.7C82.8 123 84.6 121.2 86.3 119.5C86.6 119.2 86.9 118.9 87.2 118.6C89 116.8 90.8 114.9 92.6 113.2C101.3 104.8 111.5 100.8 122.9 101.3C132.5 101.7 143.1 105.2 153.7 112L158.3 115L160.2 116.2V110.7V79.6999C154.8 72.7999 146.2 62.7999 136.4 56.1999Z" fill="#010244"/>
<path d="M159.6 130L153.2 125.5C153.1 125.4 152.9 125.3 152.8 125.2C152.6 125.1 152.4 124.9 152.2 124.8C149.9 123.1 147.2 121.3 144.3 119.6C137.8 115.9 130.2 112.7 122.5 112.4C114.9 112.1 108.3 114.5 102.2 119.6C101.6 120.1 101 120.7 100.4 121.3C99.2 122.4 98 123.6 96.8 124.9C96.3 125.4 95.7 126 95.2 126.5C94 127.7 92.8 128.9 91.6 130.1C89.3 132.4 86.8 134.8 84.3 137C79.3 141.3 73.9 145.2 67.9 147.4C66.1 148.1 64.3 148.6 62.4 149C59.9 149.5 57.4 149.7 54.9 149.7C50.2 149.7 45.5 148.9 41 147.4C35.5 145.6 30.3 142.7 25.9 138.8C25.2 138.2 24.6 137.6 23.9 137C21.6 134.8 19.5 132.5 17.5 130.1C17.2 129.7 16.8 129.3 16.5 128.9L14.8 127C14.2 126.3 13.5 125.6 12.9 124.9C11.2 123 9.60001 121.3 8.00001 119.7C6.40001 118.2 4.80001 116.8 3.00001 115.5C2.00001 114.8 1.00001 114.1 0.100006 113.6V115V119.7V124.9V130.1V137V138.9L14.9 147.5L33.9 158.5L42.9 163.7L51.9 168.9L80.2 185.2L108.5 168.9L117.5 163.7L126.5 158.5L145.5 147.5L160.3 138.9V137V130.7V130.4L159.8 130.1L159.6 130Z" fill="#010244"/>
</svg>
