<svg width="148" height="33" viewBox="0 0 148 33" fill="none" xmlns="http://www.w3.org/2000/svg">
<g clip-path="url(#clip0_426_1618)">
<path fill-rule="evenodd" clip-rule="evenodd" d="M5.41407 8.23513C7.9015 4.8904 11.8797 2.72815 16.3647 2.72815C20.8496 2.72815 24.8785 4.91996 27.3575 8.29425C27.2519 8.40405 27.1548 8.51385 27.0703 8.62788C26.6142 9.2149 26.2722 9.97506 25.9977 10.7437C25.4444 12.2936 25.0263 14.3165 24.6336 16.2126L24.5998 16.3816C24.2113 18.2735 23.8481 20.0304 23.4131 21.3395C23.2188 21.9266 23.0288 22.3404 22.8641 22.6065C22.6909 22.3404 22.4967 21.9181 22.2897 21.3226C21.821 19.9797 21.4282 18.1511 21.0101 16.2L20.9975 16.1366C20.5963 14.2615 20.1739 12.2767 19.6418 10.7521C19.3758 9.98773 19.0506 9.23601 18.6241 8.65322C18.206 8.07887 17.5091 7.43273 16.4871 7.43273C15.4651 7.43273 14.7725 8.07042 14.346 8.63632C13.911 9.2149 13.5732 9.96239 13.2902 10.7268C12.7285 12.2682 12.2682 14.2827 11.8375 16.1789L11.7952 16.3731C11.3729 18.2524 10.9759 20.0092 10.5241 21.3184C10.3509 21.8167 10.1904 22.1968 10.0426 22.4713C9.89904 22.2011 9.74279 21.8252 9.57386 21.3269C9.1431 20.0473 8.76302 18.3369 8.3576 16.504L8.2858 16.1831C7.86349 14.2827 7.40739 12.2682 6.83727 10.7226C6.55432 9.95394 6.20802 9.20223 5.75614 8.61943C5.65479 8.48851 5.54076 8.35337 5.40984 8.22668L5.41407 8.23513ZM3.91063 10.8028C4.02888 11.0351 4.15557 11.3265 4.28227 11.677C4.77637 13.0157 5.19446 14.8401 5.62522 16.7828L5.70969 17.1628C6.10244 18.9366 6.51208 20.7821 6.99352 22.2095C7.25113 22.9697 7.55942 23.7129 7.9564 24.2873C8.33226 24.8321 9.00796 25.5373 10.0426 25.5373C11.0773 25.5373 11.753 24.8363 12.1289 24.2915C12.5301 23.7172 12.8426 22.9739 13.1044 22.2137C13.6027 20.761 14.0293 18.869 14.4389 17.0615L14.5023 16.787C14.9415 14.8401 15.3638 13.0115 15.8537 11.6685C16.0817 11.0477 16.2929 10.6128 16.4787 10.3467C16.6561 10.6128 16.8546 11.0393 17.0657 11.6516C17.5345 12.9946 17.9272 14.8232 18.3411 16.7743L18.3538 16.8377C18.755 18.7127 19.1773 20.6976 19.7094 22.2222C19.9755 22.9866 20.3006 23.7383 20.7272 24.3211C21.1453 24.8954 21.8421 25.5416 22.8641 25.5416C23.8861 25.5416 24.5871 24.8912 25.001 24.3126C25.4233 23.7256 25.74 22.9739 25.9934 22.2095C26.4833 20.7441 26.8761 18.8394 27.2477 17.0277L27.3026 16.7659C27.7038 14.819 28.0881 12.9988 28.5653 11.6643C28.6667 11.3729 28.768 11.128 28.8652 10.921C29.5916 12.5892 29.997 14.4305 29.997 16.3689C29.997 23.8988 23.8903 30.0054 16.3605 30.0054C8.83059 30.0054 2.72815 23.8945 2.72815 16.3647C2.72815 14.384 3.15046 12.5005 3.91063 10.8028ZM16.3647 0C7.32715 0 0 7.32715 0 16.3647C0 25.4022 7.32715 32.7293 16.3647 32.7293C25.4022 32.7293 32.7293 25.4022 32.7293 16.3647C32.7293 7.32715 25.4022 0 16.3647 0ZM16.673 10.1229C16.673 10.1229 16.673 10.1229 16.6645 10.1313C16.6645 10.1313 16.6687 10.1313 16.673 10.1271V10.1229ZM16.2971 10.1229L16.2887 10.1144C16.2887 10.1144 16.2887 10.1144 16.2971 10.1229ZM22.6614 22.8683C22.6614 22.8683 22.6614 22.8683 22.6698 22.8599C22.6656 22.8641 22.6614 22.8683 22.6614 22.8683ZM23.0584 22.8556C23.0584 22.8556 23.0668 22.8599 23.0668 22.8641C23.0668 22.8683 23.0668 22.8641 23.0584 22.8556ZM9.75968 22.8894C9.75968 22.8894 9.75968 22.8852 9.77235 22.881C9.7639 22.8894 9.75968 22.8894 9.75968 22.8894ZM10.3129 22.881L10.3256 22.8894C10.3256 22.8894 10.3256 22.8894 10.3129 22.881Z" fill="#DCCB12"/>
<path d="M41.7669 26.0527L37.7971 12.4795H41.2728L43.6251 22.2518L46.3616 12.4795H50.2469L52.9835 22.2518L55.3654 12.4795H58.841L54.8459 26.0527H51.2056L48.3043 15.9002L45.403 26.0527H41.7626H41.7669Z" fill="white"/>
<path d="M63.9425 26.3821C62.7769 26.3821 61.8183 26.2005 61.0708 25.833C60.3233 25.4487 59.7658 24.9504 59.4026 24.3296C59.0395 23.7088 58.8536 23.0247 58.8536 22.2772C58.8536 21.0187 59.3477 19.9967 60.3317 19.2112C61.3157 18.4257 62.7938 18.0329 64.766 18.0329H68.2163V17.7035C68.2163 16.7744 67.9503 16.0903 67.4224 15.6511C66.8945 15.2118 66.2357 14.9922 65.4502 14.9922C64.7407 14.9922 64.1199 15.1654 63.5878 15.5117C63.0599 15.8411 62.7305 16.331 62.6038 16.9898H59.183C59.276 16.0058 59.6011 15.1485 60.167 14.4179C60.7498 13.6873 61.4973 13.1298 62.4095 12.7498C63.3217 12.3486 64.3437 12.1458 65.4755 12.1458C67.4097 12.1458 68.9343 12.6273 70.045 13.5944C71.1556 14.5615 71.7131 15.9298 71.7131 17.6993V26.0484H68.7316L68.4022 23.8608C68.001 24.5914 67.4351 25.1911 66.7045 25.6683C65.995 26.1413 65.0701 26.3821 63.9383 26.3821H63.9425ZM64.7365 23.6455C65.7416 23.6455 66.5144 23.3161 67.0634 22.6615C67.6293 22.0027 67.9841 21.1918 68.1319 20.2247H65.1503C64.2213 20.2247 63.554 20.3979 63.1528 20.7442C62.7516 21.0736 62.5489 21.4832 62.5489 21.9773C62.5489 22.5052 62.7516 22.9149 63.1528 23.2105C63.554 23.5019 64.0819 23.6497 64.7407 23.6497L64.7365 23.6455Z" fill="white"/>
<path d="M77.2286 26.0527L72.2495 12.4795H75.9152L79.3655 22.7417L82.8158 12.4795H86.4815L81.4729 26.0527H77.2328H77.2286Z" fill="white"/>
<path d="M93.5215 26.3821C92.1532 26.3821 90.9411 26.0907 89.8811 25.5079C88.8211 24.9251 87.9934 24.1016 87.3895 23.0458C86.7856 21.99 86.4857 20.7653 86.4857 19.3801C86.4857 17.9949 86.7771 16.7237 87.3599 15.6299C87.9638 14.5361 88.7831 13.6873 89.822 13.0834C90.882 12.4626 92.1194 12.1543 93.5426 12.1543C94.8729 12.1543 96.0511 12.4457 97.0731 13.0285C98.0951 13.6113 98.8891 14.4137 99.455 15.4357C100.038 16.4408 100.329 17.5599 100.329 18.8015C100.329 19.0042 100.321 19.2112 100.3 19.4308C100.3 19.6504 100.291 19.8784 100.27 20.1149H89.9529C90.0247 21.1749 90.3921 22.0027 91.0467 22.6066C91.7224 23.2063 92.5333 23.5103 93.4835 23.5103C94.193 23.5103 94.7884 23.3541 95.2614 23.0458C95.7555 22.7164 96.1187 22.2983 96.3552 21.7873H99.9111C99.6577 22.6446 99.2269 23.4301 98.623 24.1396C98.0402 24.8322 97.3096 25.3812 96.4354 25.7824C95.5781 26.1836 94.6026 26.3863 93.5088 26.3863L93.5215 26.3821ZM93.5468 14.9965C92.6895 14.9965 91.9336 15.2414 91.2748 15.7355C90.6202 16.2085 90.1979 16.9391 90.0163 17.9231H96.7775C96.7226 17.0278 96.3932 16.3183 95.7935 15.7904C95.1896 15.2625 94.4421 14.9965 93.551 14.9965H93.5468Z" fill="white"/>
<path d="M102.187 26.0527V6.34747H105.688V26.0527H102.187Z" fill="white"/>
<path d="M114.772 26.3821C113.404 26.3821 112.192 26.0907 111.132 25.5079C110.072 24.9251 109.244 24.1016 108.64 23.0458C108.036 21.99 107.737 20.7653 107.737 19.3801C107.737 17.9949 108.028 16.7237 108.611 15.6299C109.215 14.5361 110.034 13.6873 111.073 13.0834C112.133 12.4626 113.37 12.1543 114.793 12.1543C116.124 12.1543 117.302 12.4457 118.324 13.0285C119.346 13.6113 120.14 14.4137 120.706 15.4357C121.289 16.4408 121.58 17.5599 121.58 18.8015C121.58 19.0042 121.572 19.2112 121.55 19.4308C121.55 19.6504 121.542 19.8784 121.521 20.1149H111.204C111.276 21.1749 111.643 22.0027 112.298 22.6066C112.973 23.2063 113.784 23.5103 114.734 23.5103C115.444 23.5103 116.039 23.3541 116.512 23.0458C117.006 22.7164 117.37 22.2983 117.606 21.7873H121.166C120.908 22.6446 120.482 23.4301 119.878 24.1396C119.295 24.8322 118.565 25.3812 117.69 25.7824C116.833 26.1836 115.858 26.3863 114.764 26.3863L114.772 26.3821ZM114.802 14.9965C113.945 14.9965 113.189 15.2414 112.53 15.7355C111.875 16.2085 111.453 16.9391 111.271 17.9231H118.033C117.978 17.0278 117.648 16.3183 117.049 15.7904C116.445 15.2625 115.697 14.9965 114.806 14.9965H114.802Z" fill="white"/>
<path d="M129.051 26.3821C127.847 26.3821 126.787 26.192 125.875 25.8077C124.963 25.4065 124.232 24.8575 123.687 24.1649C123.138 23.4723 122.813 22.6699 122.703 21.7577H126.234C126.344 22.2856 126.635 22.7417 127.108 23.126C127.602 23.4892 128.231 23.675 128.996 23.675C129.76 23.675 130.318 23.5188 130.664 23.2105C131.027 22.9022 131.213 22.5432 131.213 22.142C131.213 21.5592 130.96 21.1665 130.449 20.9638C129.938 20.7442 129.228 20.533 128.316 20.3345C127.733 20.2078 127.138 20.0516 126.538 19.87C125.938 19.6884 125.381 19.4603 124.87 19.1858C124.376 18.8944 123.974 18.527 123.666 18.092C123.358 17.6359 123.202 17.0785 123.202 16.4239C123.202 15.2203 123.675 14.2067 124.625 13.3875C125.592 12.5682 126.943 12.1543 128.675 12.1543C130.28 12.1543 131.559 12.5302 132.505 13.2777C133.472 14.0251 134.047 15.0556 134.228 16.369H130.917C130.715 15.3639 129.959 14.8656 128.645 14.8656C127.986 14.8656 127.475 14.9922 127.112 15.2499C126.766 15.5032 126.593 15.8242 126.593 16.2085C126.593 16.5928 126.859 16.9307 127.387 17.1672C127.915 17.4037 128.62 17.6233 129.494 17.826C130.444 18.0456 131.31 18.2905 132.096 18.565C132.898 18.8184 133.536 19.2112 134.013 19.7433C134.486 20.2543 134.722 20.9933 134.722 21.9604C134.739 22.8008 134.52 23.5568 134.068 24.2325C133.612 24.9082 132.953 25.4361 132.096 25.8204C131.238 26.2047 130.225 26.3947 129.059 26.3947L129.051 26.3821Z" fill="white"/>
<path d="M142.333 26.3821C141.129 26.3821 140.069 26.192 139.157 25.8077C138.245 25.4065 137.514 24.8575 136.969 24.1649C136.42 23.4723 136.095 22.6699 135.985 21.7577H139.516C139.626 22.2856 139.917 22.7417 140.39 23.126C140.884 23.4892 141.513 23.675 142.278 23.675C143.042 23.675 143.599 23.5188 143.946 23.2105C144.309 22.9022 144.495 22.5432 144.495 22.142C144.495 21.5592 144.237 21.1665 143.726 20.9638C143.215 20.7442 142.506 20.533 141.593 20.3345C141.011 20.2078 140.415 20.0516 139.816 19.87C139.212 19.6884 138.658 19.4603 138.147 19.1858C137.653 18.8944 137.252 18.527 136.944 18.092C136.636 17.6359 136.479 17.0785 136.479 16.4239C136.479 15.2203 136.952 14.2067 137.902 13.3875C138.87 12.5682 140.221 12.1543 141.952 12.1543C143.557 12.1543 144.837 12.5302 145.783 13.2777C146.75 14.0251 147.324 15.0556 147.506 16.369H144.195C143.992 15.3639 143.236 14.8656 141.923 14.8656C141.268 14.8656 140.753 14.9922 140.39 15.2499C140.044 15.5032 139.87 15.8242 139.87 16.2085C139.87 16.5928 140.137 16.9307 140.664 17.1672C141.192 17.4037 141.898 17.6233 142.772 17.826C143.722 18.0456 144.588 18.2905 145.373 18.565C146.176 18.8184 146.813 19.2112 147.291 19.7433C147.764 20.2543 148 20.9933 148 21.9604C148.017 22.8008 147.797 23.5568 147.345 24.2325C146.889 24.9082 146.231 25.4361 145.373 25.8204C144.516 26.2047 143.502 26.3947 142.337 26.3947L142.333 26.3821Z" fill="white"/>
</g>
<defs>
<clipPath id="clip0_426_1618">
<rect width="148" height="32.7293" fill="white"/>
</clipPath>
</defs>
</svg>
